<?xml version="1.0" encoding="UTF-8"?><svg id="_图层_2" xmlns="http://www.w3.org/2000/svg" xmlns:xlink="http://www.w3.org/1999/xlink" viewBox="0 0 208 233.59"><defs><style>.cls-1{fill:url(#_未命名的渐变_40);}.cls-1,.cls-2,.cls-3,.cls-4,.cls-5,.cls-6,.cls-7,.cls-8,.cls-9,.cls-10,.cls-11{stroke-width:0px;}.cls-2{fill:url(#_未命名的渐变_36);}.cls-3{fill:url(#_未命名的渐变_34);}.cls-4{fill:url(#_未命名的渐变_32);}.cls-5{fill:url(#_未命名的渐变_30);}.cls-6{fill:none;}.cls-12,.cls-7{fill:url(#_未命名的渐变_9);}.cls-12,.cls-8,.cls-11{fill-rule:evenodd;}.cls-7{clip-rule:evenodd;}.cls-13{clip-path:url(#clippath-1);}.cls-8{fill:url(#_未命名的渐变_4);}.cls-9{fill:url(#_未命名的渐变_9-2);}.cls-10{fill:url(#_未命名的渐变_9-3);}.cls-11{fill:url(#_未命名的渐变_4-2);}</style><linearGradient id="_未命名的渐变_4" x1="26.65" y1="160.83" x2="53.24" y2="160.83" gradientUnits="userSpaceOnUse"><stop offset="0" stop-color="#fff"/><stop offset="1" stop-color="#ee2e31"/></linearGradient><linearGradient id="_未命名的渐变_4-2" x1="86.46" y1="123.84" x2="152.38" y2="9.67" xlink:href="#_未命名的渐变_4"/><linearGradient id="_未命名的渐变_9" x1="34.45" y1="139.42" x2="102.29" y2="139.42" gradientUnits="userSpaceOnUse"><stop offset="0" stop-color="#fff"/><stop offset=".02" stop-color="#f6fafc"/><stop offset=".13" stop-color="#bddaed"/><stop offset=".25" stop-color="#8abee0"/><stop offset=".37" stop-color="#60a6d5"/><stop offset=".49" stop-color="#3d93cc"/><stop offset=".62" stop-color="#2284c5"/><stop offset=".74" stop-color="#0f79bf"/><stop offset=".87" stop-color="#0373bc"/><stop offset="1" stop-color="#0071bc"/></linearGradient><clipPath id="clippath-1"><path class="cls-7" d="m50.78,45.24c-33.58,34.96-8.48,65.35,13.82,97.25h-13.6c-1.19,2.56-2.22,5.1-3.09,7.61h21.92c2.24,3.36,4.38,6.73,6.39,10.14h-30.92c-.42,2.55-.65,5.09-.67,7.62h35.78c1.68,3.35,3.17,6.72,4.41,10.14h-39.14c.55,2.53,1.32,5.06,2.33,7.61h39.11c.79,3.34,1.29,6.71,1.47,10.13h-35.36c1.69,2.66,3.55,5.11,5.44,7.62h29.76c-.95,9.67-4.78,19.7-12.72,30.24C159.52,167.62,15.16,118.18,50.78,45.24"/></clipPath><linearGradient id="_未命名的渐变_9-2" x1="-2169.52" y1="-1289.01" x2="-2170.49" y2="-1295.35" gradientTransform="translate(70536.26 42089.78) scale(32.46)" xlink:href="#_未命名的渐变_9"/><linearGradient id="_未命名的渐变_9-3" x1="100.71" y1="187.87" x2="208" y2="187.87" xlink:href="#_未命名的渐变_9"/><linearGradient id="_未命名的渐变_36" x1="91.19" y1="144.73" x2="99.19" y2="144.73" gradientUnits="userSpaceOnUse"><stop offset="0" stop-color="#fff"/><stop offset=".05" stop-color="#f4e2ec"/><stop offset=".15" stop-color="#e0adcb"/><stop offset=".26" stop-color="#ce7fad"/><stop offset=".37" stop-color="#bf5895"/><stop offset=".48" stop-color="#b33880"/><stop offset=".6" stop-color="#a91f70"/><stop offset=".72" stop-color="#a30d65"/><stop offset=".85" stop-color="#9f035f"/><stop offset="1" stop-color="#9e005d"/></linearGradient><linearGradient id="_未命名的渐变_30" x1="22.61" y1="98.44" x2="34.04" y2="98.44" gradientUnits="userSpaceOnUse"><stop offset="0" stop-color="#fff"/><stop offset=".11" stop-color="#ffe5ca"/><stop offset=".22" stop-color="#ffd09d"/><stop offset=".34" stop-color="#ffbd76"/><stop offset=".45" stop-color="#ffad56"/><stop offset=".58" stop-color="#ffa23d"/><stop offset=".7" stop-color="#ff992b"/><stop offset=".84" stop-color="#ff9421"/><stop offset="1" stop-color="#ff931e"/></linearGradient><linearGradient id="_未命名的渐变_40" x1="44.33" y1="37.86" x2="51.18" y2="37.86" gradientUnits="userSpaceOnUse"><stop offset="0" stop-color="#fff"/><stop offset=".1" stop-color="#fefbcd"/><stop offset=".21" stop-color="#fdf7a0"/><stop offset=".33" stop-color="#fdf479"/><stop offset=".45" stop-color="#fcf259"/><stop offset=".57" stop-color="#fcf040"/><stop offset=".7" stop-color="#fcef2e"/><stop offset=".84" stop-color="#fcee24"/><stop offset="1" stop-color="#fcee21"/></linearGradient><linearGradient id="_未命名的渐变_34" x1="67.19" y1="119.01" x2="74.04" y2="119.01" gradientUnits="userSpaceOnUse"><stop offset="0" stop-color="#fff"/><stop offset=".02" stop-color="#fff9fb"/><stop offset=".16" stop-color="#ffd3e3"/><stop offset=".31" stop-color="#ffb3cf"/><stop offset=".46" stop-color="#ff9abf"/><stop offset=".63" stop-color="#ff88b4"/><stop offset=".8" stop-color="#ff7eae"/><stop offset="1" stop-color="#ff7bac"/></linearGradient><linearGradient id="_未命名的渐变_32" x1="72.9" y1="219.6" x2="82.05" y2="219.6" gradientUnits="userSpaceOnUse"><stop offset="0" stop-color="#fff"/><stop offset=".04" stop-color="#f4faef"/><stop offset=".16" stop-color="#d4edc2"/><stop offset=".28" stop-color="#b8e29b"/><stop offset=".41" stop-color="#a1d97b"/><stop offset=".54" stop-color="#90d262"/><stop offset=".68" stop-color="#83cc50"/><stop offset=".83" stop-color="#7cc946"/><stop offset="1" stop-color="#7ac943"/></linearGradient></defs><g id="_图层_1-2"><polyline class="cls-6" points="0 183.41 0 0 183.41 0"/><path class="cls-8" d="m51.79,131.59c-12.64,22.07-18.43,45.37,1.45,71.76-38.84-30.57-28.68-57.58-10.15-85.04,2.7,4.43,5.66,8.85,8.71,13.27"/><path class="cls-11" d="m78.15,15c2.94,3.06,5.42,6.07,7.5,9.07,13.44-5.97,28.77-9.07,45.31-9.07,31.71,0,58.97,11.4,77.05,32.54l-23.36,21.97c-22.19-23.93-61.93-30.32-90.51-13.66h0c-2.35,18.83-16.15,36.94-29.2,55.55-2.77-4.33-5.34-8.7-7.54-13.1,2.49-3.43,4.96-6.89,7.33-10.37l-12.12-3.25c-.64-2.74-1.11-5.49-1.41-8.26l17.93,4.8c1.89-3,3.67-6.02,5.3-9.08l-23.53-6.31c.13-2.57.41-5.13.83-7.66l26.11,7c1.39-3.15,2.59-6.33,3.55-9.55l-27.26-7.3c.79-2.43,1.72-4.81,2.78-7.14l26.22,7.03c.58-3.38.85-6.81.78-10.29l-21.94-5.88c1.5-2.27,3.15-4.46,4.94-6.55l16.2,4.34c-.87-4.84-2.48-9.79-4.95-14.85"/><path class="cls-12" d="m50.78,45.24c-33.58,34.96-8.48,65.35,13.82,97.25h-13.6c-1.19,2.56-2.22,5.1-3.09,7.61h21.92c2.24,3.36,4.38,6.73,6.39,10.14h-30.92c-.42,2.55-.65,5.09-.67,7.62h35.78c1.68,3.35,3.17,6.72,4.41,10.14h-39.14c.55,2.53,1.32,5.06,2.33,7.61h39.11c.79,3.34,1.29,6.71,1.47,10.13h-35.36c1.69,2.66,3.55,5.11,5.44,7.62h29.76c-.95,9.67-4.78,19.7-12.72,30.24C159.52,167.62,15.16,118.18,50.78,45.24"/><g class="cls-13"><rect class="cls-9" x="15.16" y="45.24" width="144.37" height="188.35"/></g><path class="cls-10" d="m130.67,215.27c31.99,0,59.24-11.4,77.33-32.54l-23.36-22.25c-14.19,15.58-31.71,23.09-52.01,23.09-7.57,0-14.74-1-21.41-2.89.17,10-2.83,20.23-10.51,30.79,9.41,2.48,19.45,3.8,29.97,3.8"/><circle class="cls-2" cx="95.19" cy="144.73" r="4"/><circle class="cls-5" cx="28.32" cy="98.44" r="5.72"/><circle class="cls-1" cx="47.75" cy="37.86" r="3.43"/><circle class="cls-3" cx="70.62" cy="119.01" r="3.43"/><circle class="cls-4" cx="77.47" cy="219.6" r="4.57"/></g></svg>